<?xml version="1.0" standalone="no"?>
<!DOCTYPE svg PUBLIC "-//W3C//DTD SVG 20010904//EN"
 "http://www.w3.org/TR/2001/REC-SVG-20010904/DTD/svg10.dtd">
<svg version="1.0" xmlns="http://www.w3.org/2000/svg"
 width="75.000000pt" height="75.000000pt" viewBox="0 0 75.000000 75.000000"
 preserveAspectRatio="xMidYMid meet">
<g transform="translate(0.000000,75.000000) scale(0.100000,-0.100000)"
fill="#FF0000" stroke="none">
<path d="M473 535 c-39 -16 -53 -42 -53 -93 0 -49 28 -76 95 -93 68 -16 95
-34 95 -64 0 -50 -74 -70 -147 -40 -45 19 -43 20 -43 -15 0 -25 5 -30 38 -39
82 -23 178 -5 201 37 6 12 11 39 11 61 0 59 -30 87 -113 108 -74 18 -96 38
-77 73 17 33 68 37 148 14 21 -6 23 -4 20 22 -2 20 -10 30 -28 35 -42 12 -113
9 -147 -6z"/>
<path d="M160 365 l0 -175 30 0 30 0 0 85 0 85 70 0 c63 0 70 2 70 20 0 18 -7
20 -70 20 l-70 0 0 50 0 50 75 0 c68 0 75 2 75 20 0 19 -7 20 -105 20 l-105 0
0 -175z"/>
</g>
</svg>
